<svg xmlns="http://www.w3.org/2000/svg" viewBox="0 0 33.93 38.26"><defs><style>.cls-1{fill:#fff;stroke:#bbbdbf;stroke-miterlimit:10;stroke-width:0.3px;}.cls-2{fill:#557ebf;}.cls-3{fill:#36a852;}.cls-4{fill:#f9bc15;}.cls-5{fill:#ea4535;}</style></defs><g id="Layer_2" data-name="Layer 2"><g id="Layer_1-2" data-name="Layer 1"><path class="cls-1" d="M29.6,32H22.26L13,38V32H4.33A4.18,4.18,0,0,1,.15,27.84V4.33A4.18,4.18,0,0,1,4.33.15H29.6a4.18,4.18,0,0,1,4.18,4.18V27.84A4.18,4.18,0,0,1,29.6,32Z"/><path class="cls-2" d="M28.45,16.8a13.69,13.69,0,0,0-.2-2.39H17.19v4.52h6.34a5.46,5.46,0,0,1-2.35,3.56v2.93H25a11.44,11.44,0,0,0,3.49-8.62Z"/><path class="cls-3" d="M17.19,28.25A11.21,11.21,0,0,0,25,25.42l-3.77-2.93a7.11,7.11,0,0,1-10.57-3.72H6.72v3A11.72,11.72,0,0,0,17.19,28.25Z"/><path class="cls-4" d="M10.61,18.77a7,7,0,0,1,0-4.49v-3H6.72a11.73,11.73,0,0,0,0,10.52Z"/><path class="cls-5" d="M17.19,9.44a6.41,6.41,0,0,1,4.5,1.76L25,7.86a11.24,11.24,0,0,0-7.85-3.05A11.7,11.7,0,0,0,6.72,11.27l3.89,3A7,7,0,0,1,17.19,9.44Z"/></g></g></svg>