<svg xmlns="http://www.w3.org/2000/svg" viewBox="0 0 13.94 14.22"><defs><style>.cls-1{fill:#557ebf;}.cls-2{fill:#36a852;}.cls-3{fill:#f9bc15;}.cls-4{fill:#ea4535;}</style></defs><g id="Layer_2" data-name="Layer 2"><g id="Layer_1-2" data-name="Layer 1"><path class="cls-1" d="M13.94,7.28a8.78,8.78,0,0,0-.12-1.45H7.11V8.57H11a3.31,3.31,0,0,1-1.42,2.16v1.78h2.29a6.94,6.94,0,0,0,2.12-5.23Z"/><path class="cls-2" d="M7.11,14.22a6.85,6.85,0,0,0,4.72-1.71l-2.3-1.78A4.31,4.31,0,0,1,3.12,8.48H.76v1.83A7.09,7.09,0,0,0,7.11,14.22Z"/><path class="cls-3" d="M3.12,8.48a4.25,4.25,0,0,1,0-2.73V3.92H.76a7.12,7.12,0,0,0,0,6.39Z"/><path class="cls-4" d="M7.11,2.81A3.88,3.88,0,0,1,9.84,3.88l2-2A6.81,6.81,0,0,0,7.11,0,7.1,7.1,0,0,0,.76,3.92L3.12,5.75A4.26,4.26,0,0,1,7.11,2.81Z"/></g></g></svg>